<svg height="512pt" viewBox="0 -13 512 512" width="512pt" xmlns="http://www.w3.org/2000/svg"><path d="m184.019531 418.246094c-36.570312 0-66.425781-26.234375-72.980469-60.179688-.882812-4.542968-1.339843-9.242187-1.339843-14.027344 0-2.757812.148437-5.566406.472656-8.382812l9.207031-111.84375 1.6875-20.496094h125.925782l1.6875 20.496094 9.195312 111.84375c4.945312 44.050781-29.53125 82.589844-73.855469 82.589844zm0 0" fill="#e8e7e6"/><path d="m246.988281 203.316406h-125.921875l-1.6875 20.496094h.003906l-9.214843 111.84375c-.316407 2.816406-.476563 5.625-.476563 8.382812 0 4.785157.464844 9.484376 1.347656 14.027344 6.554688 33.941406 36.40625 60.179688 72.984376 60.179688-18.902344 0-34.332032-26.234375-37.726563-60.179688-.453125-4.542968-.691406-9.242187-.691406-14.027344 0-2.757812.078125-5.566406.246093-8.382812l3.609376-84.734375c.574218-13.476563 11.734374-24.105469 25.222656-23.929687 3.089844.039062 6.203125.058593 9.332031.058593 15.640625 0 30.8125-.472656 45.296875-1.496093 5.914062-.421876 11.714844-.929688 17.386719-1.523438.664062-.070312 1.320312-.140625 1.976562-.21875zm0 0" fill="#d1d1d1"/><path d="m368.066406 134.570312c0 46.238282-50.570312 68.605469-121.363281 76.140626-5.671875.59375-11.472656 1.101562-17.386719 1.523437-14.484375 1.023437-29.660156 1.496094-45.296875 1.496094-22 0-43.097656-.945313-62.65625-3.019531-70.792969-7.535157-121.363281-29.902344-121.363281-76.140626 0-18.046874 7.699219-37.628906 21.300781-56.128906 30.851563-42.019531 92.144531-78.441406 162.71875-78.441406 15.628907 0 30.804688 1.785156 45.292969 5.03125 19.636719 4.375 38.015625 11.429688 54.5625 20.320312 50.667969 27.1875 84.191406 71.570313 84.191406 109.21875zm0 0" fill="#a55621"/><path d="m368.066406 134.570312c0 46.238282-50.570312 68.605469-121.363281 76.140626-5.671875.59375-11.472656 1.101562-17.386719 1.523437-5.917968-.421875-11.71875-.929687-17.390625-1.523437-70.785156-7.535157-121.363281-29.902344-121.363281-76.140626 0-18.046874 7.699219-37.628906 21.300781-56.128906 24.027344-32.71875 66.503907-62.042968 117.453125-73.410156 19.636719 4.375 38.011719 11.429688 54.558594 20.320312 50.667969 27.1875 84.191406 71.570313 84.191406 109.21875zm0 0" fill="#bf6a30"/><path d="m356.699219 486.117188c-30.859375 0-56.054688-22.140626-61.585938-50.78125-.746093-3.832032-1.128906-7.796876-1.128906-11.835938 0-2.328125.125-4.699219.398437-7.074219l7.769532-94.378906 1.421875-17.292969h106.257812l1.425781 17.292969 7.761719 94.378906c4.171875 37.171875-24.921875 69.691407-62.320312 69.691407zm0 0" fill="#e8e7e6"/><path d="m409.832031 304.753906h-106.253906l-1.425781 17.292969h.003906l-7.777344 94.378906c-.265625 2.375-.398437 4.746094-.398437 7.074219 0 4.039062.390625 8.003906 1.136719 11.835938 5.53125 28.640624 30.71875 50.78125 61.585937 50.78125-15.949219 0-28.96875-22.140626-31.832031-50.78125-.386719-3.832032-.585938-7.796876-.585938-11.835938 0-2.328125.066406-4.699219.207032-7.074219l3.046874-71.5c.484376-11.375 9.902344-20.339843 21.28125-20.195312 2.609376.03125 5.234376.050781 7.878907.050781 13.195312 0 26-.398438 38.21875-1.265625 4.992187-.351563 9.886719-.78125 14.671875-1.285156.5625-.058594 1.113281-.117188 1.667968-.183594zm0 0" fill="#d1d1d1"/><path d="m512 248.359375c0 39.015625-42.671875 57.890625-102.410156 64.25-4.785156.5-9.679688.929687-14.671875 1.285156-12.21875.863281-25.023438 1.261719-38.21875 1.261719-18.566407 0-36.367188-.796875-52.871094-2.546875-59.738281-6.359375-102.410156-25.234375-102.410156-64.25 0-15.226563 6.5-31.753906 17.972656-47.363281 26.039063-35.457032 77.753906-66.191406 137.308594-66.191406 13.1875 0 25.992187 1.507812 38.21875 4.246093 16.570312 3.691407 32.078125 9.644531 46.039062 17.148438 42.753907 22.941406 71.042969 60.394531 71.042969 92.160156zm0 0" fill="#a55621"/><path d="m512 248.359375c0 39.015625-42.671875 57.890625-102.410156 64.25-4.785156.5-9.679688.929687-14.671875 1.285156-4.992188-.355469-9.886719-.785156-14.671875-1.285156-59.730469-6.359375-102.410156-25.234375-102.410156-64.25 0-15.226563 6.496093-31.753906 17.972656-47.363281 20.277344-27.609375 56.121094-52.351563 99.109375-61.945313 16.570312 3.691407 32.078125 9.644531 46.042969 17.148438 42.75 22.941406 71.039062 60.394531 71.039062 92.160156zm0 0" fill="#bf6a30"/></svg>